<svg width="1067" height="244" viewBox="0 0 1067 244" fill="none" xmlns="http://www.w3.org/2000/svg">
<path fill-rule="evenodd" clip-rule="evenodd" d="M808.34 0.212678C950.832 -4.53421 1030.77 71.3645 1066.65 109.423C1045.2 143.727 989.525 208.506 899.639 235.893C932.335 214.277 953.64 178.931 953.64 138.994C953.64 73.1957 895.815 19.8553 824.484 19.8553C753.154 19.8553 695.328 73.1956 695.328 138.994C695.328 183.757 722.091 222.753 761.661 243.112C668.454 224.235 592.704 161.024 566.173 124.314C596.668 84.6013 687.797 4.22842 808.34 0.212678Z" fill="white"/>
<path fill-rule="evenodd" clip-rule="evenodd" d="M258.312 0.212664C115.82 -4.53406 35.8766 71.3646 0 109.423C21.4554 143.727 77.1277 208.508 167.016 235.895C134.318 214.279 113.012 178.932 113.012 138.994C113.012 73.1957 170.837 19.8562 242.168 19.8562C313.499 19.8564 371.323 73.1958 371.323 138.994C371.323 183.755 344.563 222.751 304.994 243.111C398.199 224.233 473.949 161.025 500.479 124.315C469.984 84.6024 378.855 4.22839 258.312 0.212664Z" fill="white"/>
</svg>
