<svg width="102" height="36" viewBox="0 0 102 36" fill="none" xmlns="http://www.w3.org/2000/svg">
<path d="M93.3925 25.48C89.2125 25.48 85.8125 22.08 85.8125 17.86C85.8125 13.7 89.2125 10.28 93.3925 10.28C97.6125 10.28 101.013 13.7 101.013 17.86C101.013 22.08 97.6125 25.48 93.3925 25.48ZM93.3925 23.54C96.5325 23.54 99.0725 21 99.0725 17.86C99.0725 14.76 96.5325 12.22 93.3925 12.22C90.2925 12.22 87.7525 14.76 87.7525 17.86C87.7525 21 90.2925 23.54 93.3925 23.54Z" fill="#141D3A"/>
<path d="M82.9336 25V10.76H84.9136V25H82.9336Z" fill="#141D3A"/>
<path d="M74.4336 25V10.76H77.8136C80.5536 10.76 81.9936 14.32 81.9936 17.86C81.9936 21.46 80.5936 25 77.8136 25H74.4336ZM76.3936 23.06H77.8736C79.2736 23.06 80.0336 20.48 80.0336 17.86C80.0336 15.3 79.2736 12.72 77.8736 12.72H76.3936V23.06Z" fill="#141D3A"/>
<path d="M65.3242 19.88V10.76H67.2842V19.88C67.2842 22.08 68.1442 23.22 69.0442 23.22C69.9642 23.22 70.9042 22.12 70.9042 19.88V10.76H72.8442V19.88C72.8442 23.44 70.9242 25.18 69.0442 25.18C67.1642 25.18 65.3242 23.4 65.3242 19.88Z" fill="#141D3A"/>
<path d="M59.7058 25V12.72H56.9258V10.76H64.4458V12.72H61.6658V25H59.7058Z" fill="#141D3A"/>
<path d="M49.5547 23.32L50.8747 21.9C51.8747 22.88 52.6747 23.22 53.3347 23.22C54.3547 23.22 54.8747 22.26 54.8747 21.34C54.8747 18.24 49.6147 18.8 49.6147 14.36C49.6147 12.26 51.0347 10.6 53.0347 10.6C54.0747 10.6 55.2547 11.08 56.5147 12.16L55.2147 13.62C54.3547 12.86 53.5747 12.54 53.0347 12.54C52.0547 12.54 51.5747 13.38 51.5747 14.36C51.5747 17.38 56.8147 16.78 56.8147 21.34C56.8147 23.3 55.4347 25.18 53.3347 25.18C52.2547 25.18 50.9347 24.66 49.5547 23.32Z" fill="#141D3A"/>
<path d="M41.9297 25V10.76H43.8897V19.46L47.5297 10.76H49.7097L46.3297 18.54L49.6497 25H47.4497L45.2297 20.66L43.8897 23.34V25H41.9297Z" fill="#141D3A"/>
<circle cx="17.7999" cy="17.7999" r="17.7999" fill="white"/>
<path d="M17.6094 10.8146C20.7143 10.7025 22.4565 12.4956 23.2383 13.3947C22.7705 14.2055 21.5555 15.7356 19.5947 16.382C20.3084 15.8715 20.7754 15.0383 20.7754 14.0939C20.7754 12.5395 19.5153 11.2794 17.9609 11.2794C16.4066 11.2794 15.1465 12.5395 15.1465 14.0939C15.1465 15.1502 15.7291 16.0695 16.5898 16.5509C14.5599 16.1043 12.9099 14.6131 12.332 13.7462C12.9967 12.808 14.9827 10.9094 17.6094 10.8146Z" fill="#141D3A"/>
<path d="M4.00781 19.3711C5.53235 18.7847 8.25368 17.4007 11.1611 18.7852C13.6237 19.9578 14.5231 22.3809 14.9141 23.5928C14.2492 24.036 12.7594 24.6843 10.9463 24.7256C11.7758 24.236 12.334 23.3357 12.334 22.3027C12.3338 20.7485 11.0738 19.4883 9.51953 19.4883C7.96526 19.4883 6.70521 20.7485 6.70508 22.3027C6.70508 22.8146 6.84418 23.2935 7.08301 23.707C5.25528 22.4998 4.29047 20.4389 4.00781 19.3711Z" fill="#141D3A"/>
<path d="M25.3467 18.632C28.1611 17.7877 30.7415 18.8269 31.6797 19.4523C31.3152 20.5823 30.5075 22.7645 28.4033 24.0051C28.7645 23.5318 28.9824 22.9432 28.9824 22.3019C28.9824 20.7475 27.7224 19.4875 26.168 19.4875C24.6136 19.4875 23.3535 20.7476 23.3535 22.3019C23.3536 23.4293 24.0182 24.3987 24.9756 24.8478C23.2552 24.7695 21.7624 24.0544 20.7734 23.674C21.1254 22.3449 22.5326 19.4764 25.3467 18.632Z" fill="#141D3A"/>
</svg>
