<svg width="36" height="36" viewBox="0 0 36 36" fill="none" xmlns="http://www.w3.org/2000/svg">
<circle cx="17.7999" cy="17.7999" r="17.7999" fill="white"/>
<path d="M17.6131 10.8146C20.718 10.7025 22.4602 12.4956 23.242 13.3947C22.7742 14.2055 21.5592 15.7356 19.5985 16.382C20.3121 15.8715 20.7791 15.0383 20.7791 14.0939C20.7791 12.5395 19.5191 11.2794 17.9647 11.2794C16.4103 11.2794 15.1502 12.5395 15.1502 14.0939C15.1502 15.1502 15.7328 16.0695 16.5936 16.5509C14.5636 16.1043 12.9137 14.6131 12.3358 13.7462C13.0004 12.808 14.9865 10.9094 17.6131 10.8146Z" fill="#141D3A"/>
<path d="M4.00977 19.3711C5.5343 18.7847 8.25563 17.4007 11.1631 18.7852C13.6256 19.9578 14.5251 22.3809 14.916 23.5928C14.2511 24.036 12.7614 24.6843 10.9482 24.7256C11.7778 24.236 12.3359 23.3357 12.3359 22.3027C12.3358 20.7485 11.0758 19.4883 9.52148 19.4883C7.96721 19.4883 6.70717 20.7485 6.70703 22.3027C6.70703 22.8146 6.84614 23.2935 7.08496 23.707C5.25724 22.4998 4.29242 20.4389 4.00977 19.3711Z" fill="#141D3A"/>
<path d="M25.3506 18.632C28.1651 17.7877 30.7454 18.8269 31.6836 19.4523C31.3191 20.5823 30.5114 22.7645 28.4072 24.0051C28.7684 23.5318 28.9863 22.9432 28.9863 22.3019C28.9863 20.7475 27.7263 19.4875 26.1719 19.4875C24.6175 19.4875 23.3574 20.7476 23.3574 22.3019C23.3575 23.4293 24.0221 24.3987 24.9795 24.8478C23.2591 24.7695 21.7663 24.0544 20.7773 23.674C21.1293 22.3449 22.5365 19.4764 25.3506 18.632Z" fill="#141D3A"/>
</svg>
