<svg width="77" height="30" viewBox="0 0 77 30" fill="none" xmlns="http://www.w3.org/2000/svg">
<path d="M1.77111 9.46935C1.50402 9.39922 1.23065 9.55888 1.16051 9.82597L0.0175824 14.1784C-0.0525532 14.4455 0.107108 14.7189 0.374195 14.789C0.641282 14.8591 0.914655 14.6995 0.984791 14.4324L2.00073 10.5636L5.86956 11.5795C6.13665 11.6496 6.41002 11.49 6.48016 11.2229C6.55029 10.9558 6.39063 10.6824 6.12354 10.6123L1.77111 9.46935ZM76.3453 0.245775L75.9098 0.000121956C63.5959 21.8302 47.8261 28.8227 33.8407 28.117C19.8035 27.4087 7.47572 18.9465 2.07587 9.7008L1.64411 9.95296L1.21236 10.2051C6.78156 19.7408 19.4142 28.3903 33.7903 29.1157C48.2181 29.8437 64.3144 22.5919 76.7808 0.491429L76.3453 0.245775Z" fill="#8B8B8B"/>
</svg>
