<svg width="30" height="30" viewBox="0 0 30 30" fill="none" xmlns="http://www.w3.org/2000/svg">
<rect width="30" height="30" rx="15" fill="#F3F3F3"/>
<path d="M10.375 20.125C10.375 18.7098 11.5223 17.5625 12.9375 17.5625H15.5V20.125C15.5 21.5402 14.3527 22.6875 12.9375 22.6875C11.5223 22.6875 10.375 21.5402 10.375 20.125Z" fill="#0ACF83"/>
<path d="M15.5 15C15.5 13.5848 16.6473 12.4375 18.0625 12.4375C19.4777 12.4375 20.625 13.5848 20.625 15C20.625 16.4152 19.4777 17.5625 18.0625 17.5625C16.6473 17.5625 15.5 16.4152 15.5 15Z" fill="#1ABCFE"/>
<path d="M10.375 15C10.375 16.4152 11.5223 17.5625 12.9375 17.5625H15.5V12.4375H12.9375C11.5223 12.4375 10.375 13.5848 10.375 15Z" fill="#A259FF"/>
<path d="M15.5 7.3125V12.4375H18.0625C19.4777 12.4375 20.625 11.2902 20.625 9.875C20.625 8.45977 19.4777 7.3125 18.0625 7.3125H15.5Z" fill="#FF7262"/>
<path d="M10.375 9.875C10.375 11.2902 11.5223 12.4375 12.9375 12.4375H15.5V7.3125L12.9375 7.3125C11.5223 7.3125 10.375 8.45977 10.375 9.875Z" fill="#F24E1E"/>
</svg>
