<svg width="1158" height="727" viewBox="0 0 1158 727" fill="none" xmlns="http://www.w3.org/2000/svg">
<path fill-rule="evenodd" clip-rule="evenodd" d="M633.512 22.8402C741.063 -8.47613 817.779 38.8296 853.04 63.3594C843.847 95.812 814.943 160.008 752.184 199.906C772.582 175.77 781.443 142.487 773.119 109.509C759.404 55.1736 704.239 22.2444 649.903 35.959C595.569 49.6738 562.639 104.839 576.354 159.174C585.683 196.136 614.195 223.193 648.579 232.398C573.647 234.729 502.772 197.096 474.912 171.883C489.863 133.226 542.526 49.333 633.512 22.8402Z" fill="#F5F7FF"/>
<path fill-rule="evenodd" clip-rule="evenodd" d="M236.358 537.993C291.679 549.489 314.661 588.714 324.565 607.985C311.919 621.177 280.477 645.301 238.862 645.277C257.332 641.235 272.843 627.075 277.66 607.475C284.406 580.025 267.623 552.304 240.173 545.557C212.723 538.811 185.001 555.594 178.255 583.044C173.044 604.246 181.871 625.609 198.807 637.345C161.929 621.706 137.218 585.602 130.441 566.862C146.248 553.179 189.558 528.267 236.358 537.993Z" fill="#F5F7FF"/>
<path fill-rule="evenodd" clip-rule="evenodd" d="M1038.47 225.766C1100.4 219.848 1137.34 253.62 1154.03 270.663C1145.64 287.412 1123.21 319.433 1084.83 334.683C1098.46 323.634 1106.75 306.396 1105.63 287.541C1103.79 256.475 1077.12 232.784 1046.05 234.625C1014.99 236.465 991.296 263.141 993.136 294.206C994.388 315.339 1007.13 333.059 1024.93 341.651C983.816 335.142 949.059 307.255 936.478 290.608C948.648 271.071 986.087 230.773 1038.47 225.766Z" fill="#F5F7FF"/>
<path fill-rule="evenodd" clip-rule="evenodd" d="M141.824 222.177C224.68 203.143 280.742 242.335 306.388 262.459C298.006 286.647 273.302 334.027 224.007 361.518C240.519 344.12 248.687 319.288 243.819 293.936C235.799 252.169 195.439 224.811 153.672 232.831C111.905 240.851 84.5479 281.21 92.5674 322.977C98.0232 351.392 118.446 373.136 144.098 381.611C87.2208 380.108 35.1613 348.5 15.1519 328.18C28.1678 299.543 71.731 238.279 141.824 222.177Z" fill="#F5F7FF"/>
<path fill-rule="evenodd" clip-rule="evenodd" d="M887.512 476.841C995.063 445.525 1071.78 492.83 1107.04 517.359C1097.54 550.901 1066.98 618.352 999.749 657.838C1024.65 633.404 1036.27 596.773 1027.12 560.509C1013.4 506.174 958.239 473.244 903.904 486.958C849.569 500.673 816.639 555.839 830.354 610.174C840.688 651.115 874.555 679.9 913.868 685.739C834.857 692.529 758.168 652.359 728.911 625.883C743.863 587.226 796.527 503.334 887.512 476.841Z" fill="#F5F7FF"/>
</svg>
